<?xml version="1.0" standalone="no"?>
<!DOCTYPE svg PUBLIC "-//W3C//DTD SVG 20010904//EN"
 "http://www.w3.org/TR/2001/REC-SVG-20010904/DTD/svg10.dtd">
<svg version="1.0" xmlns="http://www.w3.org/2000/svg"
 width="260.000000pt" height="260.000000pt" viewBox="0 0 260.000000 260.000000"
 preserveAspectRatio="xMidYMid meet">
<metadata>
Created by potrace 1.11, written by Peter Selinger 2001-2013
</metadata>
<g transform="translate(0.000000,260.000000) scale(0.100000,-0.100000)"
fill="#000000" stroke="none">
<path d="M0 1300 l0 -1300 1300 0 1300 0 0 1300 0 1300 -1300 0 -1300 0 0
-1300z m2300 448 c-43 -45 -72 -88 -68 -100 3 -7 -5 -20 -16 -30 -17 -13 -19
-19 -9 -29 10 -10 8 -18 -9 -36 -19 -20 -20 -25 -8 -33 12 -7 10 -14 -14 -39
-28 -29 -28 -51 0 -51 10 0 1 -13 -21 -35 -38 -35 -39 -55 -4 -55 31 0 18 -22
-29 -48 -51 -29 -58 -66 -16 -82 26 -10 26 -11 -27 -39 -70 -37 -82 -56 -50
-80 l24 -18 -59 -22 c-32 -12 -65 -24 -71 -26 -21 -7 -15 -43 9 -56 l22 -12
-26 -13 c-14 -7 -57 -20 -97 -29 -54 -13 -71 -21 -71 -34 0 -9 5 -22 11 -28
16 -16 -26 -26 -91 -21 -27 1 -51 -1 -53 -5 -1 -5 -47 5 -102 23 -134 42 -255
77 -284 84 -27 6 -64 -11 -110 -50 -18 -15 -35 -23 -39 -19 -4 4 9 19 28 34
83 63 80 54 79 216 l0 145 -35 0 c-28 0 -35 4 -32 18 2 11 14 18 36 20 31 3
32 5 32 48 0 24 4 44 9 44 5 0 12 17 16 38 4 20 14 52 22 70 15 31 17 32 34
16 25 -23 42 -13 68 38 13 23 35 58 49 77 l26 35 8 -26 c18 -53 42 -44 99 38
34 50 49 56 49 19 0 -39 31 -31 84 20 26 25 49 45 51 45 2 0 5 -12 7 -27 5
-41 45 -43 83 -3 35 37 45 38 45 5 0 -31 21 -32 66 -4 l34 21 0 -21 c0 -24 15
-26 50 -6 32 18 40 18 40 0 0 -8 6 -15 14 -15 8 0 21 7 30 15 19 19 26 19 26
-1 0 -11 5 -14 18 -9 9 4 31 9 47 10 17 1 55 13 85 27 30 14 57 24 59 23 1 -2
-7 -14 -19 -27z m-1960 -395 c0 -7 -4 -13 -10 -13 -5 0 -10 -15 -10 -34 0 -45
-29 -66 -92 -66 -27 0 -48 -4 -48 -10 0 -5 24 -10 54 -10 79 0 108 -13 104
-47 -4 -40 -40 -54 -120 -51 -77 4 -99 18 -80 48 6 10 9 26 6 35 -4 8 -1 21 5
29 9 10 9 20 0 40 -15 33 0 72 33 86 35 13 158 8 158 -7z m140 -2 c0 -13 -10
-21 -34 -25 -40 -8 -46 -19 -46 -92 0 -47 -2 -54 -20 -54 -19 0 -20 7 -20 90
0 83 1 90 20 90 11 0 20 -5 20 -11 0 -5 10 -3 22 5 31 22 58 20 58 -3z m177
-16 c13 -14 23 -37 23 -51 0 -23 -2 -24 -81 -24 l-81 0 14 -22 c19 -28 69 -35
91 -14 17 17 57 22 57 7 0 -24 -54 -51 -100 -51 -42 0 -52 4 -74 31 -41 48
-29 119 24 147 38 19 101 8 127 -23z m192 20 c25 -12 51 -57 51 -86 0 -5 -36
-9 -80 -9 -81 0 -93 -6 -64 -34 19 -20 54 -20 80 -1 20 15 54 20 54 8 0 -4
-10 -17 -22 -30 -16 -18 -32 -23 -68 -23 -58 0 -97 27 -106 74 -16 86 73 144
155 101z m222 -4 c21 -17 24 -28 24 -93 0 -68 -2 -73 -22 -76 -21 -3 -22 1
-25 70 -3 79 -11 87 -64 74 -23 -6 -24 -11 -24 -77 0 -67 -1 -70 -22 -67 -22
3 -23 8 -26 91 l-3 88 35 -3 c20 -1 38 1 42 5 14 14 62 7 85 -12z m1387 -234
c17 -13 15 -27 -3 -27 -8 0 -15 4 -15 9 0 13 -33 19 -59 10 -18 -7 -22 -15
-19 -41 2 -26 8 -34 27 -36 13 -2 35 2 47 9 30 16 45 2 19 -17 -12 -9 -36 -14
-60 -12 -46 4 -72 37 -62 80 11 42 85 57 125 25z m-1738 3 c0 -5 -13 -10 -30
-10 -29 0 -30 -1 -30 -50 0 -27 -4 -50 -10 -50 -5 0 -10 23 -10 50 0 49 -1 50
-30 50 -16 0 -30 5 -30 10 0 6 30 10 70 10 40 0 70 -4 70 -10z m128 -23 c2
-17 -2 -29 -12 -33 -14 -5 -14 -8 1 -30 13 -21 13 -24 0 -24 -8 0 -22 11 -31
25 -9 14 -25 25 -36 25 -15 0 -20 -7 -20 -25 0 -14 -4 -25 -10 -25 -6 0 -10
27 -10 60 l0 61 58 -3 c54 -3 57 -4 60 -31z m132 23 c0 -5 -18 -10 -40 -10
-29 0 -40 -4 -40 -15 0 -10 11 -15 35 -15 19 0 35 -4 35 -10 0 -5 -16 -10 -35
-10 -24 0 -35 -5 -35 -15 0 -11 12 -15 45 -15 25 0 45 -4 45 -10 0 -6 -27 -10
-60 -10 l-60 0 0 60 0 60 55 0 c30 0 55 -4 55 -10z m130 0 c0 -5 -21 -10 -46
-10 -56 0 -57 -23 -1 -28 50 -4 47 -22 -3 -22 -29 0 -40 -4 -40 -15 0 -11 12
-15 45 -15 25 0 45 -4 45 -10 0 -5 -25 -10 -55 -10 l-55 0 0 60 0 60 55 0 c30
0 55 -4 55 -10z m1000 -40 l0 -50 45 0 c25 0 45 -4 45 -10 0 -5 -25 -10 -55
-10 l-55 0 0 60 c0 33 4 60 10 60 6 0 10 -22 10 -50z m130 0 l0 -50 45 0 c25
0 45 -4 45 -10 0 -6 -27 -10 -60 -10 l-60 0 0 60 c0 47 3 60 15 60 11 0 15
-12 15 -50z"/>
<path d="M1860 1305 c0 -118 1 -125 20 -125 18 0 20 7 20 63 0 69 10 87 50 87
40 0 50 -18 50 -87 0 -56 2 -63 20 -63 18 0 20 7 20 75 0 63 -3 78 -21 96 -21
21 -59 23 -101 4 -16 -6 -18 -1 -18 34 0 34 -3 41 -20 41 -19 0 -20 -7 -20
-125z"/>
<path d="M1320 1390 c0 -23 -4 -30 -20 -30 -13 0 -20 -7 -20 -20 0 -13 7 -20
20 -20 18 0 20 -7 20 -64 0 -70 5 -76 66 -76 42 0 48 27 7 32 -26 3 -28 7 -31
56 l-3 52 30 0 c24 0 31 4 31 20 0 16 -7 20 -30 20 -27 0 -30 3 -30 30 0 23
-4 30 -20 30 -16 0 -20 -7 -20 -30z"/>
<path d="M1475 1358 c-33 -19 -44 -41 -45 -86 0 -61 32 -92 97 -92 51 0 93 21
93 46 0 19 -34 18 -50 -1 -17 -21 -63 -19 -83 3 -10 10 -17 22 -17 25 0 4 36
7 80 7 48 0 80 4 80 10 0 30 -32 81 -55 90 -34 13 -75 12 -100 -2z m80 -30
c45 -20 31 -38 -30 -38 -59 0 -68 10 -33 34 27 19 30 19 63 4z"/>
<path d="M1694 1360 c-56 -23 -73 -112 -29 -155 35 -36 115 -36 150 0 14 13
25 29 25 35 0 17 -35 11 -53 -10 -20 -24 -54 -26 -85 -4 -27 19 -29 64 -4 87
23 21 81 22 88 2 6 -14 54 -22 54 -9 0 45 -88 78 -146 54z"/>
<path d="M1205 1291 c-11 -19 5 -31 41 -31 28 0 35 4 32 18 -4 19 -62 30 -73
13z"/>
<path d="M1335 1133 c-11 -3 -26 -10 -32 -15 -18 -15 -16 -74 3 -92 20 -21 88
-21 104 -1 16 19 5 34 -12 17 -17 -17 -63 -15 -78 3 -17 21 -4 62 22 68 13 4
33 0 46 -9 27 -18 43 -10 21 10 -18 17 -48 25 -74 19z"/>
<path d="M1456 1073 c-26 -55 -27 -85 -2 -50 16 21 74 23 82 2 6 -13 34 -22
34 -10 0 2 -12 29 -27 60 -36 72 -54 72 -87 -2z m64 -5 c0 -4 -9 -8 -21 -8
-15 0 -19 4 -15 16 3 9 6 21 6 27 1 13 30 -22 30 -35z"/>
<path d="M1580 1070 c0 -47 3 -60 15 -60 9 0 15 9 15 25 0 18 5 25 19 25 10 0
26 -11 35 -25 9 -14 24 -25 33 -25 14 0 14 2 -2 20 -17 19 -17 21 -1 39 10 11
16 28 14 38 -3 15 -15 19 -66 21 l-62 3 0 -61z m100 25 c0 -10 -11 -15 -35
-15 -24 0 -35 5 -35 15 0 10 11 15 35 15 24 0 35 -5 35 -15z"/>
<path d="M1730 1070 l0 -60 55 0 c30 0 55 5 55 10 0 6 -20 10 -45 10 -33 0
-45 4 -45 15 0 10 10 15 34 15 19 0 38 5 41 10 4 6 -10 10 -34 10 -30 0 -41 4
-41 15 0 11 12 15 45 15 25 0 45 5 45 10 0 6 -25 10 -55 10 l-55 0 0 -60z"/>
<path d="M196 1324 c-19 -19 -20 -26 -4 -42 24 -24 88 -11 88 17 0 39 -54 55
-84 25z"/>
<path d="M180 1165 c0 -13 11 -15 57 -13 81 4 85 28 4 28 -48 0 -61 -3 -61
-15z"/>
<path d="M553 1330 c-13 -5 -23 -16 -23 -25 0 -11 12 -15 50 -15 54 0 69 19
31 40 -23 12 -28 12 -58 0z"/>
<path d="M762 1324 c-35 -24 -26 -34 33 -34 30 0 55 4 55 9 0 12 -40 41 -55
41 -6 0 -21 -7 -33 -16z"/>
<path d="M750 1094 c0 -11 9 -14 37 -12 52 4 56 28 4 28 -30 0 -41 -4 -41 -16z"/>
</g>
</svg>
